<svg width="36" height="28" viewBox="0 0 36 28" fill="none" xmlns="http://www.w3.org/2000/svg">
<path d="M0.612048 28C0.456208 28 0.300288 27.9402 0.180769 27.8205C-0.0592312 27.5799 -0.0601913 27.1884 0.177888 26.9465C0.314128 26.8083 14.0345 13.148 35.4711 16.1264C35.8063 16.1727 36.0401 16.4848 35.9943 16.8227C35.9483 17.1617 35.6338 17.3954 35.3047 17.3511C14.4615 14.4556 1.17765 27.6837 1.04621 27.8175C0.926688 27.9392 0.769408 28 0.612048 28Z" fill="#8DC83A"/>
<path d="M5.4998 28C5.30045 28 5.10492 27.9015 4.98724 27.7204C4.80228 27.4351 4.88109 27.0517 5.16412 26.8648C11.4977 22.6762 21.898 18.0792 35.4711 19.9663C35.8063 20.0127 36.0401 20.3246 35.9943 20.6626C35.9483 21.0016 35.6338 21.2353 35.3047 21.1909C22.107 19.3584 11.994 23.8265 5.83444 27.8992C5.73124 27.9672 5.615 28 5.4998 28Z" fill="#8DC83A"/>
<path d="M12.6715 28C12.432 28 12.2044 27.8575 12.1064 27.6205C11.9759 27.3056 12.1231 26.9436 12.4348 26.8116C19.7719 23.713 27.5235 22.7023 35.4711 23.8062C35.8063 23.8525 36.0401 24.1645 35.9943 24.5025C35.9483 24.8415 35.6338 25.0757 35.3047 25.0308C27.5756 23.9578 20.0401 24.9395 12.9072 27.9522C12.8298 27.9846 12.7499 28 12.6715 28Z" fill="#8DC83A"/>
<path d="M22.5842 16.9009C22.5627 16.9009 22.5407 16.8999 22.5192 16.8976L0.547968 14.5594C0.211809 14.5237 -0.0319513 14.2194 0.00340868 13.88C0.0387687 13.5405 0.348528 13.2928 0.676128 13.3299L22.6472 15.668C22.9834 15.7038 23.2272 16.008 23.1918 16.3475C23.1588 16.6653 22.8931 16.9009 22.5842 16.9009Z" fill="#8DC83A"/>
<path d="M14.3698 19.6446C14.3482 19.6446 14.3263 19.6437 14.3048 19.6413L0.548048 18.1772C0.211889 18.1415 -0.0318713 17.8372 0.00348864 17.4978C0.0388486 17.1578 0.348608 16.9116 0.676208 16.9477L14.4328 18.4118C14.769 18.4475 15.0128 18.7517 14.9775 19.0912C14.9444 19.409 14.6786 19.6446 14.3698 19.6446Z" fill="#8DC83A"/>
<path d="M7.8598 22.5695C7.83828 22.5695 7.81628 22.5686 7.79476 22.5661L0.547968 21.795C0.211809 21.7593 -0.0319513 21.455 0.00340868 21.1156C0.0387687 20.7756 0.348528 20.5298 0.676128 20.5655L7.92284 21.3367C8.259 21.3724 8.50284 21.6766 8.4674 22.0161C8.43444 22.3338 8.1686 22.5695 7.8598 22.5695Z" fill="#8DC83A"/>
<path d="M10.5186 15.6053C10.1806 15.6053 9.9066 15.3286 9.9066 14.9872V11.9865C9.9066 11.0715 9.1698 10.3273 8.2638 10.3273C7.3578 10.3273 6.62052 11.0715 6.62052 11.9865V14.5188C6.62052 14.8601 6.3466 15.137 6.0086 15.137C5.67052 15.137 5.3966 14.8602 5.3966 14.5188V11.9865C5.3966 10.3902 6.68268 9.09121 8.2638 9.09121C9.84444 9.09121 11.1306 10.3902 11.1306 11.9865V14.9872C11.1306 15.3286 10.8565 15.6053 10.5186 15.6053Z" fill="#8DC83A"/>
<path d="M10.5186 12.8331H8.87196C8.53396 12.8331 8.25996 12.5564 8.25996 12.215C8.25996 11.8736 8.53388 11.5968 8.87196 11.5968H10.5186C10.8566 11.5968 11.1306 11.8735 11.1306 12.215C11.1306 12.5564 10.8565 12.8331 10.5186 12.8331Z" fill="#8DC83A"/>
<path d="M22.5392 13.3812C22.5235 13.3812 22.5072 13.3806 22.4914 13.3792C20.8439 13.2498 19.4091 12.1725 18.7904 10.6466C16.952 10.4863 15.5048 8.92363 15.5048 7.0264C15.5048 5.02284 17.1189 3.39273 19.1026 3.39273C19.1208 3.39273 19.1389 3.39273 19.1571 3.39321C19.3943 1.48298 21.0122 0 22.9668 0C24.7625 0 26.2771 1.24486 26.6907 2.94511C26.9264 2.90358 27.1641 2.88281 27.4017 2.88281C29.7243 2.88281 31.6143 4.79167 31.6143 7.1375C31.6143 9.48332 29.7243 11.3917 27.4017 11.3917C27.0636 11.3917 26.7759 11.115 26.7759 10.7736C26.7759 10.4321 27.0364 10.1555 27.3745 10.1555C29.0498 10.1555 30.3904 8.80146 30.3904 7.1375C30.3904 5.47297 29.0498 4.11903 27.4018 4.11903C27.0633 4.11903 26.7238 4.17979 26.393 4.29961C26.2103 4.36522 26.0071 4.34058 25.8466 4.2315C25.6855 4.12291 25.5845 3.94329 25.5755 3.74768C25.5071 2.33952 24.3615 1.23622 22.9669 1.23622C21.5249 1.23622 20.3516 2.42121 20.3516 3.8776C20.3516 3.91719 20.3549 3.9563 20.3573 3.99541C20.3573 3.99638 20.3607 4.04615 20.3607 4.0476C20.3731 4.24119 20.2943 4.42905 20.1484 4.55558C20.0026 4.68203 19.8056 4.7318 19.6187 4.68979C19.434 4.64882 19.2653 4.62903 19.1028 4.62903C17.7937 4.62903 16.7289 5.70437 16.7289 7.02656C16.7289 8.34867 17.7936 9.4241 19.1028 9.4241C19.1204 9.41828 19.1582 9.41392 19.1969 9.41206C19.4771 9.40147 19.7348 9.58343 19.8132 9.85871C20.1742 11.1253 21.2886 12.0447 22.5862 12.1471C22.9233 12.1737 23.1752 12.4711 23.1489 12.811C23.124 13.1349 22.8558 13.3812 22.5392 13.3812Z" fill="#8DC83A"/>
<path d="M22.6152 17.4031C22.2773 17.4031 22.0032 17.1265 22.0032 16.785V9.59878C22.0032 9.25741 22.2772 8.98067 22.6152 8.98067C22.9532 8.98067 23.2272 9.25733 23.2272 9.59878V16.785C23.2272 17.1264 22.9532 17.4031 22.6152 17.4031Z" fill="#8DC83A"/>
<path d="M25.3595 17.0076C25.0215 17.0076 24.7475 16.7309 24.7475 16.3895V9.06656C24.7475 8.90286 24.8121 8.74547 24.9269 8.6296L26.2006 7.34313C26.4397 7.1017 26.8269 7.1017 27.0659 7.34313C27.305 7.58464 27.305 7.97578 27.0659 8.21713L25.9715 9.32245V16.3895C25.9715 16.7309 25.6976 17.0076 25.3595 17.0076Z" fill="#8DC83A"/>
</svg>
