<svg width="28" height="28" viewBox="0 0 28 28" fill="none" xmlns="http://www.w3.org/2000/svg">
<path d="M27.0968 22.6308V18.5161C27.0968 17.9281 26.7179 17.4314 26.1935 17.2444V16.7097C26.1935 15.9627 25.5857 15.3548 24.8387 15.3548H19.7879C19.6009 14.8305 19.1041 14.4516 18.5161 14.4516V8.80058C18.5161 7.66703 17.9046 6.61477 16.9197 6.05387L8.26271 1.12181C7.86981 0.454323 7.15174 0 6.32258 0C5.0829 0 4.07445 1.00529 4.06587 2.24316H4.06452L3.626 15.3991C2.59045 15.6041 1.80645 16.5182 1.80645 17.6129C1.80645 18.0984 1.96361 18.5455 2.22555 18.9145L0.94071 20.4129C0.334193 21.1206 0 22.0234 0 22.9555C0 23.9996 0.406452 24.9805 1.14439 25.7185L2.49968 27.0737C3.09671 27.6708 3.89064 28 4.73516 28H9.48387V27.0968H8.58064V24.6219L7.02935 23.3809C6.55832 23.0043 6.26252 22.4668 6.19568 21.8671L5.87187 18.9528C6.15142 18.5766 6.32258 18.116 6.32258 17.6129C6.32258 16.9129 5.99561 16.2942 5.49387 15.8796L7.59342 4.12232C7.6729 4.06768 7.74381 4.00265 7.81606 3.93852L12.4496 8.57206C12.2906 8.84077 12.1935 9.14968 12.1935 9.48387C12.1935 10.323 12.7716 11.0243 13.5484 11.2262V14.4516H13.3858C12.7423 14.4516 12.1832 14.9095 12.0572 15.5405L10.8477 21.5889L10.8414 22.6281C10.2819 23.1985 9.93548 23.9784 9.93548 24.8387C9.93548 26.5815 11.3535 28 13.0968 28H24.8387C26.5819 28 28 26.5815 28 24.8387C28 23.9797 27.6545 23.2007 27.0968 22.6308ZM4.06452 16.2581C4.81148 16.2581 5.41935 16.8659 5.41935 17.6129C5.41935 18.3599 4.81148 18.9677 4.06452 18.9677C3.31755 18.9677 2.70968 18.3599 2.70968 17.6129C2.70968 16.8659 3.31755 16.2581 4.06452 16.2581ZM6.46529 24.0863L7.67742 25.0555V25.2903H6.77419V26.1935H7.67742V27.0968H4.73516C4.13181 27.0968 3.56458 26.8615 3.13826 26.4352L1.78297 25.0799C1.21574 24.5126 0.903226 23.758 0.903226 22.9555C0.903226 22.2388 1.16019 21.5446 1.62671 21.0005L2.88716 19.5305C3.23084 19.7423 3.63187 19.871 4.06452 19.871C4.41542 19.871 4.74329 19.7838 5.04 19.6402L5.29832 21.9664C5.39136 22.806 5.80594 23.5588 6.46529 24.0863ZM4.65477 15.4429C4.61232 15.4312 4.57303 15.4131 4.53013 15.4041L4.90993 4.0049C5.29787 4.31968 5.78516 4.51613 6.32258 4.51613C6.42148 4.51613 6.51542 4.49942 6.61116 4.48677L4.65477 15.4429ZM6.32258 3.6129C5.57561 3.6129 4.96774 3.00503 4.96774 2.25806C4.96774 1.5111 5.57561 0.903226 6.32258 0.903226C7.06955 0.903226 7.67742 1.5111 7.67742 2.25806C7.67742 3.00503 7.06955 3.6129 6.32258 3.6129ZM19.871 18.0645H20.7742V17.1613H19.871V16.2581H24.8387C25.0875 16.2581 25.2903 16.4604 25.2903 16.7097V17.1613H21.6774V18.0645H25.7419C25.9908 18.0645 26.1935 18.2668 26.1935 18.5161V21.9868C25.7821 21.7908 25.3242 21.6774 24.8387 21.6774H19.871V18.0645ZM8.36342 3.20871C8.48806 2.94181 8.56123 2.64871 8.57252 2.338L16.4726 6.83877C17.1762 7.23935 17.6129 7.99129 17.6129 8.80058V14.4516H14.4516V11.2262C15.2284 11.0243 15.8065 10.323 15.8065 9.48387C15.8065 8.48761 14.9963 7.67742 14 7.67742C13.6658 7.67742 13.3569 7.77452 13.0882 7.93348L8.36342 3.20871ZM13.0968 9.48387C13.0968 8.98574 13.5019 8.58064 14 8.58064C14.4981 8.58064 14.9032 8.98574 14.9032 9.48387C14.9032 9.982 14.4981 10.3871 14 10.3871C13.5019 10.3871 13.0968 9.982 13.0968 9.48387ZM11.7419 21.7221L12.9428 15.7179C12.9848 15.5075 13.1713 15.3548 13.3858 15.3548H18.5161C18.765 15.3548 18.9677 15.5572 18.9677 15.8065V21.6774H13.0968C12.6113 21.6774 12.1534 21.7908 11.7419 21.9868V21.7221ZM24.8387 27.0968H13.0968C11.8517 27.0968 10.8387 26.0838 10.8387 24.8387C10.8387 23.5936 11.8517 22.5806 13.0968 22.5806H24.8387C26.0838 22.5806 27.0968 23.5936 27.0968 24.8387C27.0968 26.0838 26.0838 27.0968 24.8387 27.0968Z" fill="#8DC83A"/>
<path d="M24.3871 23.0323C23.8452 23.0323 23.3637 23.277 23.0323 23.6564C22.7008 23.277 22.2194 23.0323 21.6774 23.0323C21.1355 23.0323 20.6541 23.277 20.3226 23.6564C19.9911 23.277 19.5097 23.0323 18.9677 23.0323C18.4258 23.0323 17.9444 23.277 17.6129 23.6564C17.2814 23.277 16.8 23.0323 16.2581 23.0323C15.7161 23.0323 15.2347 23.277 14.9032 23.6564C14.5717 23.277 14.0903 23.0323 13.5484 23.0323C12.5521 23.0323 11.7419 23.8425 11.7419 24.8387C11.7419 25.835 12.5521 26.6452 13.5484 26.6452C14.0903 26.6452 14.5717 26.4004 14.9032 26.021C15.2347 26.4004 15.7161 26.6452 16.2581 26.6452C16.8 26.6452 17.2814 26.4004 17.6129 26.021C17.9444 26.4004 18.4258 26.6452 18.9677 26.6452C19.5097 26.6452 19.9911 26.4004 20.3226 26.021C20.6541 26.4004 21.1355 26.6452 21.6774 26.6452C22.2194 26.6452 22.7008 26.4004 23.0323 26.021C23.3637 26.4004 23.8452 26.6452 24.3871 26.6452C25.3834 26.6452 26.1935 25.835 26.1935 24.8387C26.1935 23.8425 25.3834 23.0323 24.3871 23.0323ZM13.5484 25.7419C13.0503 25.7419 12.6452 25.3368 12.6452 24.8387C12.6452 24.3406 13.0503 23.9355 13.5484 23.9355C14.0465 23.9355 14.4516 24.3406 14.4516 24.8387C14.4516 25.3368 14.0465 25.7419 13.5484 25.7419ZM16.2581 25.7419C15.7599 25.7419 15.3548 25.3368 15.3548 24.8387C15.3548 24.3406 15.7599 23.9355 16.2581 23.9355C16.7562 23.9355 17.1613 24.3406 17.1613 24.8387C17.1613 25.3368 16.7562 25.7419 16.2581 25.7419ZM18.9677 25.7419C18.4696 25.7419 18.0645 25.3368 18.0645 24.8387C18.0645 24.3406 18.4696 23.9355 18.9677 23.9355C19.4659 23.9355 19.871 24.3406 19.871 24.8387C19.871 25.3368 19.4659 25.7419 18.9677 25.7419ZM21.6774 25.7419C21.1793 25.7419 20.7742 25.3368 20.7742 24.8387C20.7742 24.3406 21.1793 23.9355 21.6774 23.9355C22.1755 23.9355 22.5806 24.3406 22.5806 24.8387C22.5806 25.3368 22.1755 25.7419 21.6774 25.7419ZM24.3871 25.7419C23.889 25.7419 23.4839 25.3368 23.4839 24.8387C23.4839 24.3406 23.889 23.9355 24.3871 23.9355C24.8852 23.9355 25.2903 24.3406 25.2903 24.8387C25.2903 25.3368 24.8852 25.7419 24.3871 25.7419Z" fill="#8DC83A"/>
<path d="M18.5161 16.2581H13.6297L13.1054 18.8792L13.0968 19.871H18.5161V16.2581ZM17.6129 18.9677H14.009L14.3703 17.1613H17.6129V18.9677Z" fill="#8DC83A"/>
<path d="M25.2903 18.9677H23.4839V19.871H25.2903V18.9677Z" fill="#8DC83A"/>
<path d="M22.5806 18.9677H20.7742V19.871H22.5806V18.9677Z" fill="#8DC83A"/>
</svg>
