<svg width="29" height="28" viewBox="0 0 29 28" fill="none" xmlns="http://www.w3.org/2000/svg">
<path d="M28.863 2.88766L26.142 0.138414C26.0543 0.0498005 25.9354 0 25.8113 0H11.738C11.4797 0 11.2702 0.211608 11.2702 0.472603V2.64699L6.79471 1.43529C6.67491 1.40274 6.54722 1.41976 6.43981 1.48255C6.33235 1.54523 6.25394 1.64844 6.22184 1.76948L5.3488 5.06169H0.467742C0.209431 5.06169 0 5.2733 0 5.5343V27.5274C0 27.7884 0.209431 28 0.467742 28H17.262C17.4784 28 17.66 27.8512 17.7134 27.6496L17.7138 27.6497L18.9632 22.9383H28.5323C28.7906 22.9383 29 22.7267 29 22.4657V3.22185C29 3.09649 28.9507 2.97628 28.863 2.88766ZM26.279 1.61352L27.4031 2.74925H26.279V1.61352ZM7.00444 2.47059L19.6946 5.90629L19.1114 8.10537C19.0793 8.22642 19.0961 8.35538 19.1582 8.46396C19.2202 8.57254 19.3224 8.65176 19.4422 8.68419L21.6187 9.27341L17.7298 23.9376V8.28349C17.7298 8.15813 17.6805 8.03797 17.5928 7.9493L14.8717 5.20005C14.784 5.11144 14.6651 5.06163 14.541 5.06163H6.31732L7.00444 2.47059ZM21.2218 8.18743L20.1361 7.89347L20.427 6.7965L21.2218 8.18743ZM15.0087 6.67522L16.1328 7.81094H15.0087V6.67522ZM0.935484 27.0547V6.00684H14.0732V8.28349C14.0732 8.54448 14.2827 8.75609 14.541 8.75609H16.7943V27.0547H0.935484ZM19.214 21.9931L19.8511 19.5903H25.1051C25.3634 19.5903 25.5728 19.3787 25.5728 19.1177C25.5728 18.8567 25.3634 18.6451 25.1051 18.6451H20.1018L20.636 16.6305H25.1051C25.3634 16.6305 25.5728 16.4189 25.5728 16.1579C25.5728 15.8969 25.3634 15.6853 25.1051 15.6853H20.8867L21.4209 13.6707H25.1051C25.3634 13.6707 25.5728 13.4591 25.5728 13.1981C25.5728 12.9371 25.3634 12.7255 25.1051 12.7255H21.6716L22.2058 10.711H25.105C25.3633 10.711 25.5727 10.4993 25.5727 10.2383C25.5727 9.97735 25.3633 9.76575 25.105 9.76575H22.4565L22.6432 9.06145C22.6753 8.9404 22.6585 8.81144 22.5964 8.70286L22.0526 7.75122H25.1049C25.3632 7.75122 25.5727 7.53961 25.5727 7.27861C25.5727 7.01762 25.3632 6.80601 25.1049 6.80601H21.5126L20.6725 5.33574C20.6105 5.22716 20.5083 5.148 20.3885 5.11551L19.1916 4.79148H22.3006C22.559 4.79148 22.7684 4.57988 22.7684 4.31888C22.7684 4.05789 22.559 3.84628 22.3006 3.84628H15.7003L12.2057 2.90019V0.945206H25.3435V3.22185C25.3435 3.48285 25.5529 3.69445 25.8112 3.69445H28.0645V21.9931H19.214ZM3.42715 9.38063C3.42715 9.11964 3.63658 8.90803 3.89489 8.90803H11.0303C11.2886 8.90803 11.498 9.11964 11.498 9.38063C11.498 9.64163 11.2886 9.85324 11.0303 9.85324H3.89489C3.63658 9.85324 3.42715 9.64163 3.42715 9.38063ZM14.3026 24.1794C14.3026 24.4404 14.0931 24.652 13.8348 24.652H3.89489C3.63658 24.652 3.42715 24.4404 3.42715 24.1794C3.42715 23.9184 3.63658 23.7068 3.89489 23.7068H13.8348C14.0931 23.7068 14.3026 23.9184 14.3026 24.1794ZM14.3026 15.3001C14.3026 15.5611 14.0931 15.7727 13.8348 15.7727H3.89489C3.63658 15.7727 3.42715 15.5611 3.42715 15.3001C3.42715 15.0391 3.63658 14.8275 3.89489 14.8275H13.8348C14.0931 14.8275 14.3026 15.0391 14.3026 15.3001ZM14.3026 12.3403C14.3026 12.6013 14.0931 12.8129 13.8348 12.8129H3.89489C3.63658 12.8129 3.42715 12.6013 3.42715 12.3403C3.42715 12.0793 3.63658 11.8677 3.89489 11.8677H13.8348C14.0931 11.8677 14.3026 12.0793 14.3026 12.3403ZM14.3026 21.2196C14.3026 21.4806 14.0931 21.6922 13.8348 21.6922H3.89489C3.63658 21.6922 3.42715 21.4806 3.42715 21.2196C3.42715 20.9586 3.63658 20.747 3.89489 20.747H13.8348C14.0931 20.747 14.3026 20.9586 14.3026 21.2196ZM14.3026 18.2598C14.3026 18.5208 14.0931 18.7324 13.8348 18.7324H3.89489C3.63658 18.7324 3.42715 18.5208 3.42715 18.2598C3.42715 17.9988 3.63658 17.7872 3.89489 17.7872H13.8348C14.0931 17.7872 14.3026 17.9988 14.3026 18.2598Z" fill="#8DC83A"/>
</svg>
