<svg width="28" height="28" viewBox="0 0 28 28" fill="none" xmlns="http://www.w3.org/2000/svg">
<path d="M25.6084 10.0926C25.6989 10.0116 25.7681 9.90964 25.81 9.79567C25.8519 9.6817 25.8652 9.55919 25.8487 9.43888C25.8323 9.31857 25.7866 9.20413 25.7156 9.10559C25.6447 9.00704 25.5506 8.92741 25.4417 8.87367C24.7193 8.54191 23.8339 7.99619 23.0121 8.0856C23.115 7.55739 22.833 6.63223 22.7651 6.1085C22.7422 5.98961 22.6904 5.87816 22.6145 5.78388C22.5385 5.6896 22.4406 5.61536 22.3293 5.56765C22.218 5.51994 22.0968 5.50022 21.9761 5.5102C21.8554 5.52018 21.739 5.55956 21.6371 5.6249L20.6399 6.27729C20.2256 6.54644 19.8873 6.91762 19.6578 7.35517C19.4282 7.79273 19.315 8.28195 19.329 8.77588C18.877 8.77527 18.4326 8.89124 18.0385 9.11258C17.889 8.49949 17.5634 7.94352 17.1019 7.51312C17.8573 7.01483 18.3934 6.24645 18.6003 5.36555L18.9339 3.9078C18.9635 3.77689 18.9605 3.64074 18.9254 3.51123C18.8902 3.38172 18.8239 3.26278 18.7322 3.16479C18.6405 3.06679 18.5263 2.9927 18.3994 2.949C18.2725 2.90529 18.1368 2.89329 18.0043 2.91404C16.9997 3.10045 15.6441 3.18684 14.8656 3.92679C14.5742 3.25829 13.6268 2.5015 13.1322 1.986C13.0355 1.89332 12.9177 1.82572 12.7889 1.78909C12.6601 1.75247 12.5243 1.74793 12.3934 1.77588C12.2624 1.80383 12.1403 1.86341 12.0377 1.94943C11.9351 2.03544 11.8551 2.14528 11.8047 2.26933L11.2529 3.66895C11.0226 4.24862 10.9506 4.87912 11.0443 5.49579C11.138 6.11246 11.394 6.69311 11.7862 7.17819C11.4023 7.42864 11.0763 7.75818 10.83 8.14478C10.6264 7.74841 10.3257 7.41007 9.95596 7.16129C9.58625 6.91252 9.15955 6.76141 8.71567 6.72208C8.77366 6.23199 8.70479 5.73522 8.51568 5.27939C8.32656 4.82356 8.02354 4.42394 7.63564 4.11884L6.70318 3.38099C6.60769 3.30611 6.49527 3.25584 6.37581 3.23458C6.25634 3.21332 6.13348 3.22173 6.01802 3.25907C5.90257 3.29641 5.79805 3.36154 5.71366 3.44873C5.62927 3.53592 5.56758 3.64251 5.53403 3.75912C5.43004 4.2885 5.05698 5.16347 5.11041 5.70582C4.30291 5.54132 3.35551 6.00818 2.61697 6.2739C2.50463 6.31791 2.40471 6.38862 2.32583 6.47991C2.24694 6.5712 2.19148 6.68033 2.16423 6.79786C2.13697 6.91539 2.13875 7.03779 2.1694 7.15448C2.20005 7.27117 2.25866 7.37864 2.34016 7.4676C3.04993 8.26786 3.84629 9.1838 4.98595 9.23681C4.87179 9.66304 4.86733 10.1112 4.97299 10.5396C5.07864 10.9681 5.29097 11.3628 5.59021 11.6871L8.1924 14.5107H5.08157C4.61759 14.5112 4.17276 14.6958 3.84467 15.0239C3.51659 15.3519 3.33206 15.7968 3.33157 16.2607V17.9757C3.33235 18.4337 3.51267 18.8732 3.83382 19.1998C4.15497 19.5264 4.59135 19.714 5.0493 19.7225V21.0419C4.59135 21.0504 4.15496 21.238 3.83381 21.5646C3.51266 21.8911 3.33234 22.3306 3.33156 22.7886V24.5036C3.33205 24.9676 3.51658 25.4124 3.84467 25.7405C4.17275 26.0686 4.61758 26.2531 5.08156 26.2536H23.0684C23.5324 26.2531 23.9772 26.0686 24.3053 25.7405C24.6334 25.4124 24.8179 24.9676 24.8184 24.5036V22.7886C24.8177 22.3306 24.6373 21.891 24.3161 21.5645C23.9949 21.2379 23.5585 21.0502 23.1005 21.0419V19.7225C23.5585 19.7141 23.9949 19.5265 24.3161 19.1999C24.6373 18.8733 24.8177 18.4338 24.8184 17.9757V16.2607C24.8179 15.7968 24.6334 15.3519 24.3053 15.0238C23.9772 14.6957 23.5324 14.5112 23.0684 14.5107H21.4328L22.0012 13.9976C22.3275 13.701 22.5739 13.327 22.7176 12.9101C22.8613 12.4932 22.8976 12.0467 22.8232 11.6121C23.9577 11.6596 24.8356 10.8215 25.6084 10.0926ZM21.1189 7.01002L21.9422 6.47083L22.1212 7.43596C22.1911 7.81184 22.1524 8.19987 22.0095 8.5545C21.8666 8.90912 21.6255 9.21564 21.3146 9.43805C20.9789 9.21026 20.61 9.03586 20.221 8.92106C20.178 8.55052 20.2393 8.17534 20.3979 7.83773C20.5565 7.50011 20.8062 7.21346 21.1189 7.01002ZM17.2621 9.92683C17.1948 10.4376 17.0962 10.9438 16.9671 11.4426C16.3693 11.3807 15.7664 11.3866 15.1699 11.4602C15.1128 11.4672 15.0577 11.4855 15.0077 11.5138C14.9576 11.5422 14.9137 11.5801 14.8783 11.6255C14.843 11.6709 14.8169 11.7228 14.8016 11.7782C14.7864 11.8337 14.7822 11.8916 14.7893 11.9486C14.7964 12.0057 14.8148 12.0608 14.8432 12.1108C14.8717 12.1608 14.9097 12.2047 14.9551 12.2399C15.0005 12.2752 15.0525 12.3012 15.108 12.3163C15.1634 12.3315 15.2213 12.3356 15.2784 12.3284C15.7756 12.2668 16.2779 12.2574 16.777 12.3006L16.2875 14.5108H12.1666C12.1666 14.5108 11.2447 10.3413 11.2409 10.3209C11.7923 10.2131 12.3609 10.2302 12.9049 10.3707C13.0172 10.4 13.1365 10.3835 13.2366 10.3248C13.3367 10.2662 13.4095 10.1702 13.4389 10.058C13.609 9.20162 11.7571 9.37064 11.2375 9.42712C11.8203 6.46659 17.3188 6.76238 17.2621 9.92683ZM16.6683 4.0287L18.0628 3.79157L17.7479 5.16858C17.6561 5.55925 17.4772 5.92412 17.2245 6.23594C16.9719 6.54775 16.652 6.79844 16.2889 6.96929C15.9168 6.79049 15.523 6.66108 15.1174 6.58435C15.29 6.01576 15.3147 5.41252 15.1891 4.83172C15.5813 4.40975 16.1008 4.12772 16.6683 4.0287ZM12.0666 3.99067L12.5855 2.67475C13.1483 3.25003 14.1097 3.98627 14.2953 4.81312C14.4594 5.36925 14.4361 5.96389 14.2292 6.50552C13.6761 6.50485 13.1271 6.60068 12.6069 6.7887C12.2592 6.42253 12.0235 5.96448 11.9278 5.46866C11.832 4.97284 11.8802 4.45998 12.0666 3.99067ZM6.05547 5.13998L6.32079 4.19406L7.09304 4.80545C7.38585 5.03651 7.60846 5.34462 7.73588 5.69518C7.86329 6.04574 7.89047 6.42488 7.81437 6.79003C7.41632 6.86844 7.03298 7.00857 6.67821 7.20534C6.36182 6.93439 6.13791 6.57142 6.03774 6.16708C5.95688 5.8287 5.96298 5.47537 6.05547 5.13998ZM3.11922 7.02027C3.76041 6.7824 4.57765 6.38135 5.27321 6.62682C5.41533 7.03903 5.64854 7.4139 5.95549 7.72357C5.74313 7.91616 5.5538 8.13271 5.39129 8.36888C5.0948 8.38801 4.79774 8.34168 4.52116 8.23318C4.24458 8.12468 3.99525 7.95666 3.79085 7.74104L3.11922 7.02027ZM7.37099 12.3283C7.72017 11.9733 8.7613 11.8764 8.53097 11.2368C8.48557 11.1301 8.39968 11.0457 8.29215 11.0022C8.18461 10.9587 8.06421 10.9596 7.95736 11.0048C7.53705 11.1833 7.13703 11.4062 6.76411 11.6698L6.23427 11.0949C4.49122 9.14755 8.0446 6.4388 9.72743 8.10134C9.28695 8.33653 8.04997 8.87184 8.55715 9.50255C8.63888 9.58497 8.75001 9.63154 8.86608 9.63203C8.98215 9.63252 9.09366 9.58688 9.17608 9.50515C9.46112 9.22219 9.80189 9.00159 10.1767 8.85736L10.3567 9.41457C10.296 9.79738 10.3084 10.1882 10.3931 10.5664L11.2703 14.5108H9.38233L7.37099 12.3283ZM7.29513 19.7257V21.0387H5.9243V19.7257H7.29513ZM12.5124 19.7257V21.0387H8.17013V19.7257H12.5124ZM14.7623 19.7257V21.0387H13.3874V19.7257H14.7623ZM19.9798 19.7257V21.0387H15.6373V19.7257H19.9798ZM22.2255 19.7257V21.0387H20.8549V19.7257H22.2255ZM23.9434 22.7887V24.5036C23.9431 24.7356 23.8508 24.958 23.6868 25.122C23.5228 25.286 23.3004 25.3783 23.0684 25.3786H5.08157C4.84958 25.3783 4.62718 25.2861 4.46314 25.122C4.2991 24.958 4.20683 24.7356 4.20657 24.5036V22.7886C4.20683 22.5567 4.2991 22.3343 4.46314 22.1702C4.62718 22.0062 4.84958 21.9139 5.08157 21.9136C5.27683 21.9126 23.0684 21.9136 23.0684 21.9136C23.3004 21.9139 23.5228 22.0062 23.6868 22.1703C23.8508 22.3343 23.9431 22.5567 23.9434 22.7887ZM23.9434 16.2608V17.9757C23.9431 18.2077 23.8508 18.4301 23.6868 18.5941C23.5228 18.7581 23.3004 18.8504 23.0684 18.8507C22.8803 18.8536 20.6759 18.8486 20.4195 18.8507C15.7231 18.8501 9.76619 18.8511 5.08157 18.8507C4.84959 18.8505 4.62718 18.7582 4.46314 18.5941C4.29911 18.4301 4.20684 18.2077 4.20657 17.9757V16.2607C4.20684 16.0288 4.29911 15.8064 4.46314 15.6423C4.62718 15.4783 4.84959 15.386 5.08157 15.3857C6.71615 15.3856 23.0684 15.3857 23.0684 15.3857C23.3004 15.3861 23.5228 15.4783 23.6868 15.6424C23.8508 15.8064 23.9431 16.0288 23.9434 16.2608ZM21.4124 13.3504L20.8291 13.8767C20.4814 13.5806 20.1031 13.3227 19.7004 13.1072C19.5983 13.0551 19.4799 13.0451 19.3705 13.0794C19.2612 13.1137 19.1696 13.1895 19.1155 13.2906C19.0615 13.3917 19.0492 13.5099 19.0814 13.6199C19.1136 13.7299 19.1877 13.8229 19.2877 13.8789C19.5983 14.0496 19.8919 14.2498 20.1643 14.4766L20.1264 14.5107H17.1838L17.9745 10.9399C18.4044 11.1219 18.7162 11.9429 19.2394 11.5576C19.798 10.9735 18.6222 10.3348 18.2007 10.0535C18.3918 9.89407 18.6147 9.77722 18.8545 9.71073C19.0943 9.64424 19.3456 9.62964 19.5915 9.6679C21.2418 9.83722 22.8867 11.9803 21.4124 13.3504ZM22.4945 10.7125C22.351 10.464 22.1808 10.2319 21.9869 10.0203C22.3211 9.73922 22.5877 9.38642 22.7667 8.98813C23.4793 8.80557 24.2622 9.27813 24.8769 9.5731L24.1451 10.2285C23.9225 10.4256 23.6592 10.5712 23.3739 10.6549C23.0886 10.7386 22.7883 10.7582 22.4945 10.7125Z" fill="#8DC83A"/>
<path d="M7.20422 16.6797H6.08057C5.96453 16.6797 5.85325 16.7258 5.77121 16.8078C5.68916 16.8899 5.64307 17.0012 5.64307 17.1172C5.64307 17.2332 5.68916 17.3445 5.77121 17.4265C5.85325 17.5086 5.96453 17.5547 6.08057 17.5547H7.20422C7.31878 17.5525 7.42789 17.5054 7.50811 17.4236C7.58834 17.3418 7.63328 17.2318 7.63328 17.1172C7.63328 17.0026 7.58834 16.8926 7.50811 16.8108C7.42789 16.729 7.31878 16.6819 7.20422 16.6797Z" fill="#8DC83A"/>
<path d="M7.20422 23.207H6.08057C5.96453 23.207 5.85325 23.2531 5.77121 23.3352C5.68916 23.4172 5.64307 23.5285 5.64307 23.6445C5.64307 23.7606 5.68916 23.8718 5.77121 23.9539C5.85325 24.0359 5.96453 24.082 6.08057 24.082H7.20422C7.31878 24.0798 7.42789 24.0327 7.50811 23.9509C7.58834 23.8691 7.63328 23.7591 7.63328 23.6445C7.63328 23.53 7.58834 23.4199 7.50811 23.3381C7.42789 23.2563 7.31878 23.2093 7.20422 23.207Z" fill="#8DC83A"/>
<path d="M14.6367 23.207H13.513C13.3985 23.2093 13.2894 23.2563 13.2091 23.3382C13.1289 23.42 13.084 23.53 13.084 23.6445C13.084 23.7591 13.1289 23.8691 13.2092 23.9509C13.2894 24.0327 13.3985 24.0798 13.5131 24.082H14.6367C14.7512 24.0798 14.8603 24.0327 14.9406 23.9509C15.0208 23.8691 15.0657 23.7591 15.0657 23.6445C15.0657 23.53 15.0208 23.4199 14.9406 23.3381C14.8603 23.2563 14.7512 23.2093 14.6367 23.207Z" fill="#8DC83A"/>
<path d="M22.0693 23.207H20.9456C20.8311 23.2093 20.722 23.2563 20.6418 23.3382C20.5615 23.42 20.5166 23.53 20.5166 23.6445C20.5166 23.7591 20.5615 23.8691 20.6418 23.9509C20.722 24.0327 20.8311 24.0798 20.9457 24.082H22.0693C22.1839 24.0798 22.293 24.0327 22.3732 23.9509C22.4534 23.8691 22.4984 23.7591 22.4984 23.6445C22.4984 23.53 22.4534 23.4199 22.3732 23.3381C22.293 23.2563 22.1839 23.2093 22.0693 23.207Z" fill="#8DC83A"/>
<path d="M14.6367 16.6797H13.513C13.3985 16.6819 13.2894 16.729 13.2091 16.8108C13.1289 16.8926 13.084 17.0026 13.084 17.1172C13.084 17.2318 13.1289 17.3418 13.2092 17.4236C13.2894 17.5054 13.3985 17.5525 13.5131 17.5547H14.6367C14.7512 17.5525 14.8603 17.5054 14.9406 17.4236C15.0208 17.3418 15.0657 17.2318 15.0657 17.1172C15.0657 17.0026 15.0208 16.8926 14.9406 16.8108C14.8603 16.729 14.7512 16.6819 14.6367 16.6797Z" fill="#8DC83A"/>
<path d="M20.9457 17.5547H22.0693C22.1839 17.5525 22.293 17.5054 22.3732 17.4236C22.4534 17.3418 22.4984 17.2318 22.4984 17.1172C22.4984 17.0026 22.4534 16.8926 22.3732 16.8108C22.293 16.729 22.1838 16.6819 22.0693 16.6797H20.9457C20.8311 16.6819 20.722 16.729 20.6418 16.8108C20.5615 16.8926 20.5166 17.0026 20.5166 17.1172C20.5166 17.2318 20.5615 17.3418 20.6418 17.4236C20.722 17.5054 20.8311 17.5525 20.9457 17.5547Z" fill="#8DC83A"/>
</svg>
