<svg width="28" height="28" viewBox="0 0 28 28" fill="none" xmlns="http://www.w3.org/2000/svg">
<path d="M25.2561 19.1743C24.9124 19.1743 24.57 19.2324 24.2392 19.3464L24.0577 19.4087C24.0378 19.3962 24.02 19.3825 23.9989 19.3705C23.1573 18.8883 22.1175 18.7466 21.1891 18.9707C20.6272 16.9715 18.8402 15.5688 16.7635 15.5688C16.7378 15.5688 16.7125 15.5712 16.6868 15.5717C16.9559 13.7609 17.4223 12.1693 18.0894 10.7765C18.3758 10.8166 18.8145 10.8622 19.342 10.8622C20.812 10.8622 22.9419 10.5069 24.19 8.68427C26.136 5.84276 25.0348 0.581478 24.9869 0.358874L24.4865 0C24.2657 0.0300817 19.0568 0.767684 17.1108 3.6098C15.3606 6.16557 16.853 9.40253 17.3197 10.2827C17.0695 10.796 16.8433 11.3321 16.6455 11.8963C16.2013 11.4117 15.7458 10.9757 15.2754 10.5871C15.3278 9.77082 15.3187 7.33289 13.4918 6.20374C11.4088 4.91684 7.81352 5.9688 7.66138 6.01452L7.34532 6.54968C7.37678 6.70851 8.13928 10.4543 10.2223 11.7421C10.7987 12.0982 11.4035 12.23 11.983 12.23C13.1815 12.23 14.2712 11.6664 14.7746 11.3604C15.3097 11.8093 15.8249 12.3282 16.3274 12.9152C16.0833 13.7825 15.8934 14.705 15.7585 15.6867C14.7251 15.9219 13.7919 16.5207 13.1349 17.3809C12.0043 17.3995 10.9585 17.9429 10.2704 18.8469C9.91619 18.7617 9.55145 18.7156 9.18242 18.7156H5.57468C5.5534 17.9174 4.91563 17.2738 4.1305 17.2738H1.44504C0.648285 17.2738 0 17.9386 0 18.7556V26.1915C0 27.0085 0.648285 27.6733 1.44504 27.6733H4.1305C4.84705 27.6733 5.43949 27.1367 5.55443 26.4364L13.5741 27.9401C13.7941 27.9801 14.0149 28 14.2346 28C14.7521 28 15.2634 27.8899 15.7408 27.6727L27.2353 22.3961L27.2368 22.3955C27.6114 22.2219 27.8777 21.888 27.9678 21.4798C28.0575 21.0728 27.9575 20.6559 27.6947 20.3379C27.0896 19.5985 26.2007 19.1743 25.2561 19.1743ZM10.6894 10.9509C9.31487 10.1014 8.58353 7.76257 8.3323 6.79424C9.28694 6.57134 11.6502 6.14538 13.0249 6.99489C14.103 7.66119 14.342 9.02966 14.3772 9.9132C14.0314 9.67928 13.6775 9.46656 13.3134 9.27598L12.902 10.0984C13.2705 10.2913 13.6276 10.5112 13.9768 10.7535C13.2189 11.147 11.8356 11.6605 10.6894 10.9509ZM17.8505 4.13984C19.273 2.0624 22.9371 1.21981 24.1834 0.987581C24.3957 2.26545 24.873 6.07679 23.4503 8.15423C22.1985 9.98196 19.7136 10.0005 18.5495 9.89609C18.9689 9.1702 19.4506 8.50453 19.9966 7.89673L19.3315 7.27164C18.7765 7.88953 18.2849 8.56246 17.8526 9.2901C17.3557 8.14692 16.6522 5.8898 17.8505 4.13984ZM13.3341 18.3098L13.7288 18.1128C14.1971 17.4268 14.8756 16.9256 15.6437 16.6759C15.6023 17.102 15.5673 17.5352 15.5446 17.9822L16.4466 18.0303C16.4733 17.5045 16.5142 16.9953 16.5677 16.5003C16.6328 16.4967 16.6979 16.4929 16.7635 16.4929C18.5714 16.4929 20.1062 17.815 20.4129 19.6364L21.0205 19.989C21.5523 19.779 22.158 19.7418 22.7286 19.8652L18.5402 21.3035C18.082 20.4348 17.1898 19.8768 16.2001 19.8768H13.4454C12.7746 19.8768 12.1153 19.6978 11.5408 19.3603C11.426 19.292 11.3075 19.2309 11.1875 19.1731C11.743 18.5902 12.5184 18.2626 13.3341 18.3098ZM4.67544 26.1915C4.67544 26.4989 4.43098 26.7492 4.1305 26.7492H1.44504C1.14633 26.7492 0.903189 26.4989 0.903189 26.1915V18.7556C0.903189 18.4482 1.14633 18.1979 1.44504 18.1979H4.1305C4.43098 18.1979 4.67544 18.4482 4.67544 18.7556V26.1915ZM27.0867 21.2764C27.0596 21.3995 26.9787 21.5003 26.8646 21.5535L15.3724 26.8289C14.8592 27.0627 14.2921 27.1318 13.7345 27.0308L5.57863 25.5014V19.6397H9.18242C9.85702 19.6397 10.5156 19.8193 11.0889 20.1604C11.8022 20.5795 12.617 20.8009 13.4454 20.8009H16.2001C16.9549 20.8009 17.6238 21.2921 17.8646 22.0234L17.8762 22.0293L17.8677 22.0324C17.9318 22.215 17.9644 22.409 17.9644 22.6091C17.9644 22.7417 17.9127 22.8696 17.8142 22.9688C17.7276 23.0606 17.6066 23.1111 17.4736 23.1111H10.9254V24.0352H17.4736C17.8539 24.0352 18.2056 23.8845 18.4554 23.6195C18.7174 23.3563 18.8676 22.9881 18.8676 22.6091C18.8676 22.4632 18.8553 22.3193 18.8327 22.1778L24.5272 20.2224C25.4216 19.9125 26.4117 20.2095 27.0036 20.9329C27.0833 21.0292 27.1136 21.1546 27.0867 21.2764Z" fill="#8DC83A"/>
</svg>
