<svg width="26" height="26" viewBox="0 0 26 26" fill="none" xmlns="http://www.w3.org/2000/svg">
<mask id="mask0_788_1627" style="mask-type:luminance" maskUnits="userSpaceOnUse" x="0" y="0" width="26" height="26">
<path d="M0 -0.00192451H25.9999V25.998H0V-0.00192451Z" fill="white"/>
</mask>
<g mask="url(#mask0_788_1627)">
<path d="M5.4753 23.6011C10.552 27.2127 17.6397 26.7432 22.1922 22.1907L22.297 22.0846C26.7052 17.5762 27.1772 10.6572 23.7142 5.63198C23.555 5.40104 23.2387 5.34283 23.0078 5.50198C22.7769 5.66112 22.7188 5.97733 22.8779 6.20826C26.0952 10.8769 25.6267 17.3199 21.4741 21.4725L21.3739 21.5715C17.1186 25.7299 10.5339 26.0861 5.87969 22.6398C5.75527 22.5477 5.59563 22.5174 5.4461 22.5575L2.70638 23.2915L3.4405 20.552C3.48057 20.4024 3.4502 20.2427 3.35807 20.1183C-0.115314 15.4275 0.273845 8.77549 4.52544 4.52393C8.67802 0.37135 15.1209 -0.0971594 19.7895 3.11992C20.0204 3.27906 20.3366 3.22086 20.4958 2.98992C20.6549 2.75899 20.5967 2.44277 20.3658 2.28364C15.301 -1.20645 8.3126 -0.69949 3.80731 3.8058C-0.745229 8.3583 -1.21462 15.446 2.39686 20.5227L1.49779 23.8782C1.45083 24.0535 1.50094 24.2405 1.62922 24.3688C1.7575 24.497 1.94446 24.5471 2.11968 24.5002L5.4753 23.6011Z" fill="#8DC83A"/>
<path d="M13.4972 15.3838C13.4972 15.7047 13.237 15.9649 12.9161 15.9649H12.9118C12.5909 15.9649 12.3308 15.7047 12.3308 15.3838C12.3308 14.0965 13.051 12.9322 14.2191 12.3443C15.2443 11.8283 15.8716 10.7539 15.8188 9.60665C15.7854 8.87917 15.4384 8.20677 14.9451 7.71353C14.4519 7.22031 13.7795 6.87335 13.0521 6.83985C12.2495 6.80276 11.4851 7.088 10.9058 7.64134L10.8738 7.67232C10.5461 7.9947 10.3032 8.38229 10.1589 8.80837V8.80846C10.0734 9.061 9.85009 9.22174 9.60534 9.22419C9.20165 9.22822 8.92078 8.83697 9.03981 8.47237C9.2447 7.84485 9.60336 7.27227 10.1001 6.79778C10.9134 6.02109 11.9786 5.62283 13.1057 5.67467C14.0765 5.71932 15.0239 6.14537 15.7686 6.89012C16.5134 7.63486 16.9393 8.58228 16.984 9.55308C17.0579 11.1593 16.178 12.6642 14.7435 13.3862C13.9809 13.77 13.4972 14.534 13.4972 15.3838ZM14.5128 15.3838C14.5128 14.9291 14.77 14.5099 15.2001 14.2934L15.2837 14.2504C17.0269 13.3324 18.0894 11.481 17.9986 9.50636C17.9415 8.26677 17.399 7.08415 16.4868 6.17191C15.5745 5.25968 14.3919 4.71716 13.1523 4.66015C11.7489 4.59561 10.4133 5.09439 9.39874 6.06323V6.06332C8.78202 6.65237 8.33188 7.36849 8.07437 8.15711C7.73344 9.20137 8.53721 10.2505 9.61549 10.2397C10.2918 10.2329 10.867 9.80276 11.0995 9.19355L11.121 9.13405L11.1397 9.08132C11.2309 8.83655 11.374 8.61093 11.5655 8.41694L11.6073 8.3758C11.9851 8.01494 12.4787 7.83004 13.0052 7.85437H13.0054C13.4405 7.87441 13.8828 8.0875 14.2269 8.43166C14.5711 8.77584 14.7842 9.21815 14.8042 9.65329V9.65337C14.8386 10.4013 14.4291 11.1016 13.7625 11.4371C12.2562 12.1952 11.3151 13.7077 11.3151 15.3838C11.3151 16.2656 12.03 16.9805 12.9118 16.9805H12.9161C13.7979 16.9805 14.5128 16.2656 14.5128 15.3838Z" fill="#8DC83A"/>
<path d="M13.497 19.7441C13.497 20.0662 13.2359 20.3273 12.9138 20.3273C12.5917 20.3273 12.3306 20.0662 12.3306 19.7441C12.3306 19.4219 12.5917 19.1608 12.9138 19.1608C13.2359 19.1608 13.497 19.4219 13.497 19.7441ZM14.5127 19.7441C14.5127 18.861 13.7968 18.1452 12.9138 18.1452C12.0308 18.1452 11.315 18.861 11.315 19.7441C11.315 20.6271 12.0308 21.3429 12.9138 21.3429C13.7968 21.3429 14.5127 20.6271 14.5127 19.7441Z" fill="#8DC83A"/>
</g>
</svg>
