<svg width="27" height="26" viewBox="0 0 27 26" fill="none" xmlns="http://www.w3.org/2000/svg">
<path d="M21.9059 7.09712C22.4889 7.09712 23.1393 6.99939 23.8094 6.72065C25.5775 5.98504 26.7993 4.27021 26.9977 2.24535C27.0172 2.04677 26.9151 1.85588 26.7389 1.762C25.0277 0.850673 22.9496 0.986915 21.4447 2.10815C21.0472 2.40413 20.7335 2.73758 20.4811 3.08285V0.492976C20.4811 0.220732 20.2604 0 19.9882 0C19.7159 0 19.4952 0.220732 19.4952 0.492976V7.00764C18.9417 6.21781 18.1874 5.59105 17.2905 5.21789C15.5266 4.48421 13.8989 5.00438 13.2807 5.26194C13.1026 5.33608 12.9842 5.50747 12.9777 5.70028C12.9688 5.96795 12.9469 8.357 14.9258 9.83016C15.7675 10.4574 16.7886 10.7762 17.8242 10.7762C18.386 10.7762 18.9509 10.6753 19.4952 10.4858V17.3283C19.4952 17.6005 19.7159 17.8213 19.9882 17.8213C20.2604 17.8213 20.4811 17.6005 20.4811 17.3283V14.7386C20.8704 14.8428 21.3565 14.9303 21.9059 14.9303C22.4889 14.9303 23.1393 14.8326 23.8094 14.5539C25.5777 13.8183 26.7993 12.1034 26.9977 10.0786C27.0172 9.87998 26.9151 9.6891 26.7389 9.59522C25.0277 8.68437 22.9496 8.82037 21.4447 9.94136C21.0472 10.2373 20.7335 10.5708 20.4811 10.9161V6.90537C20.8704 7.00959 21.3565 7.09712 21.9059 7.09712ZM22.0335 2.89888C23.1475 2.06891 24.6604 1.91847 25.9715 2.48606C25.7161 3.99965 24.7648 5.2552 23.4306 5.81028C22.2422 6.30494 21.1205 6.08879 20.49 5.88177C20.5339 5.23908 20.7787 3.83332 22.0335 2.89888ZM15.5145 9.03942C14.2597 8.10522 14.0149 6.69947 13.9711 6.05653C14.6008 5.84952 15.723 5.6336 16.9116 6.12826C18.2459 6.68334 19.1972 7.93889 19.4526 9.45248C18.1421 10.0198 16.6288 9.86963 15.5145 9.03942ZM22.0335 10.7321C23.1475 9.90237 24.6604 9.75192 25.9715 10.3193C25.7161 11.8329 24.7648 13.0884 23.4306 13.6435C22.2422 14.1384 21.1205 13.922 20.49 13.715C20.5339 13.0723 20.7787 11.6665 22.0335 10.7321Z" fill="#8DC83A"/>
<path d="M6.47007 9.49003H0.492976C0.220732 9.49003 0 9.71076 0 9.98301V19.2704C0 19.5426 0.220732 19.7633 0.492976 19.7633H6.47007C6.74232 19.7633 6.96305 19.5426 6.96305 19.2704V18.6126L12.3983 24.6712C13.0451 25.3924 13.955 25.7965 14.9173 25.7965C14.9761 25.7965 15.0355 25.7951 15.0947 25.7919L23.0165 25.382C24.0437 25.3291 24.8481 24.4818 24.8481 23.4532C24.8481 22.3883 23.9816 21.5217 22.9167 21.5217H19.3635C18.8563 21.5217 18.3715 21.3053 18.0331 20.9277L14.9022 17.4345L16.203 18.1202C16.9229 18.5003 17.8109 18.3475 18.3631 17.7483C18.7001 17.3827 18.8674 16.9083 18.8344 16.4122C18.8015 15.9158 18.5728 15.4674 18.1905 15.1491L14.7744 12.3078C14.4167 12.01 13.9856 11.8069 13.5282 11.7207L6.96305 10.4797V9.98301C6.96305 9.71076 6.74232 9.49003 6.47007 9.49003ZM5.9771 18.7774H0.985952V10.476H5.9771V18.7774ZM13.3453 12.6893C13.6384 12.7447 13.9145 12.8749 14.1437 13.0658L17.5599 15.9074C17.7327 16.0509 17.8357 16.2533 17.8506 16.4774C17.8656 16.7013 17.79 16.9152 17.6379 17.0804C17.3887 17.3507 16.9879 17.4203 16.663 17.2481L12.9298 15.2796C12.7189 15.1686 12.4582 15.2242 12.3112 15.4125C12.1643 15.6007 12.1735 15.8669 12.3328 16.0448L17.2989 21.5858C17.8239 22.1717 18.5766 22.5077 19.3635 22.5077H22.9167C23.438 22.5077 23.8622 22.9318 23.8622 23.4532C23.8622 23.9568 23.4684 24.3715 22.9655 24.3975L15.044 24.8074C14.3148 24.8426 13.6187 24.5552 13.132 24.0126L6.96305 17.1362V11.4829L13.3453 12.6893Z" fill="#8DC83A"/>
</svg>
