<svg width="26" height="26" viewBox="0 0 26 26" fill="none" xmlns="http://www.w3.org/2000/svg">
<path d="M12.9955 7.74892e-08C11.1096 0.000992276 9.24657 0.412131 7.53551 1.2049C5.82445 1.99767 4.30635 3.15309 3.0865 4.59104C1.86665 6.02898 0.974237 7.71503 0.471168 9.53223C-0.0319011 11.3494 -0.133589 13.2543 0.173156 15.1147C0.479902 16.9752 1.18774 18.7466 2.24757 20.3062C3.30741 21.8658 4.69388 23.1762 6.31081 24.1466C7.92774 25.117 9.73645 25.7241 11.6115 25.9257C13.4865 26.1274 15.383 25.9189 17.1693 25.3146H17.1707C20.0898 24.3255 22.5626 22.3318 24.148 19.6891C25.7335 17.0464 26.3285 13.9265 25.827 10.8859C25.3255 7.84526 23.7601 5.0816 21.4099 3.08779C19.0598 1.09398 16.0777 -0.000336222 12.9955 7.74892e-08ZM12.9955 0.778453C13.6645 0.780498 14.3322 0.835982 14.9924 0.944375C15.2124 1.83404 15.3261 2.96835 14.8118 3.75014C14.4599 4.28394 13.8314 4.61512 12.9432 4.73433C10.1036 5.1151 9.26851 6.68936 9.02426 7.59392C8.66522 8.92352 9.11324 10.4853 10.0669 11.2255C10.6341 11.6668 10.2925 12.8004 9.96189 13.8965C9.83687 14.3106 9.70785 14.7388 9.62488 15.1398C9.5947 15.3045 9.52245 15.4586 9.41512 15.5872C9.3078 15.7158 9.16906 15.8144 9.01236 15.8735C8.85566 15.9327 8.68634 15.9503 8.52082 15.9247C8.3553 15.8991 8.19922 15.8311 8.06771 15.7274C7.40036 15.1959 6.87559 14.3602 6.50899 13.2435C5.99001 11.6621 5.24969 10.6857 4.30872 10.339C4.01577 10.2326 3.70367 10.1892 3.3928 10.2116C3.08193 10.234 2.77929 10.3218 2.50464 10.4691C2.00483 10.6895 1.48172 10.8527 0.945252 10.9557C1.43167 8.11129 2.9076 5.53014 5.11245 3.66799C7.3173 1.80583 10.1093 0.782428 12.9955 0.778453ZM12.9955 25.2219C11.3252 25.2195 9.67304 24.8755 8.14069 24.2109C6.60834 23.5464 5.22819 22.5754 4.08516 21.3576C5.19141 20.4537 6.45383 20.3694 7.84282 21.1105C10.2816 22.4083 11.6496 21.3292 12.7508 20.4622C13.6526 19.7505 14.204 19.3713 15.0551 19.8323C16.4775 20.6034 16.4168 21.3176 16.3249 22.3983C16.2668 23.0818 16.2021 23.844 16.5173 24.705C15.3747 25.0474 14.1883 25.2216 12.9955 25.2219ZM17.2543 24.4523C16.992 23.7426 17.0465 23.094 17.1001 22.4644C17.1962 21.3323 17.2959 20.1617 15.4255 19.1482C14.0828 18.4204 13.1187 19.1802 12.268 19.8508C11.2032 20.69 10.1972 21.4826 8.20919 20.4235C6.13861 19.319 4.58323 19.9373 3.57041 20.7758C1.76037 18.5889 0.77055 15.8388 0.77174 13.0002C0.77337 12.5851 0.796462 12.1704 0.840922 11.7578C1.53294 11.6524 2.20762 11.4544 2.84677 11.169C2.86012 11.1626 2.87324 11.1557 2.8857 11.1481C3.06247 11.0565 3.25623 11.0022 3.4549 10.9887C3.65357 10.9752 3.85289 11.0027 4.04045 11.0696C4.73672 11.3258 5.33467 12.1612 5.76979 13.4861C6.18444 14.7497 6.79462 15.7087 7.58299 16.3364C7.81863 16.5227 8.09824 16.6453 8.39495 16.6923C8.69166 16.7393 8.99547 16.7091 9.27717 16.6048C9.55886 16.5004 9.80896 16.3254 10.0034 16.0964C10.1979 15.8675 10.3301 15.5923 10.3874 15.2975C10.4633 14.9305 10.5819 14.5373 10.7073 14.1214C11.0946 12.8367 11.5337 11.3805 10.5449 10.611C9.9372 10.1388 9.47027 8.92864 9.77592 7.79676C10.1096 6.55724 11.2724 5.74365 13.046 5.50589C14.1669 5.35554 14.9793 4.9087 15.4605 4.17829C15.9625 3.41608 16.0833 2.38607 15.8257 1.11252C17.6146 1.53865 19.2841 2.36344 20.7094 3.52528C20.7813 5.20741 20.208 6.12309 19.0028 6.24297C17.2401 6.4209 16.5004 7.48271 16.5494 8.45778C16.6101 9.67284 17.8396 10.9028 20.0739 10.9028C20.6638 10.9028 21.0656 11.0162 21.2682 11.24C21.5757 11.5792 21.5083 12.2615 21.4366 12.9837C21.3254 14.1038 21.1879 15.497 22.4846 16.2663C23.1119 16.6382 23.9029 16.7516 24.6157 16.7841C24.0469 18.5348 23.0891 20.134 21.8143 21.462C20.5394 22.79 18.9805 23.8123 17.2543 24.4523ZM24.8421 16.0141C24.2084 15.9972 23.4238 15.918 22.8817 15.5966C22.0722 15.1169 22.0906 14.2808 22.2116 13.0611C22.2966 12.2017 22.3845 11.3131 21.8455 10.7182C21.4838 10.3192 20.9043 10.1252 20.0739 10.1252C18.3452 10.1252 17.3684 9.24647 17.327 8.41975C17.2899 7.67911 17.9782 7.12974 19.0802 7.01853C20.5299 6.87419 21.363 5.88666 21.4804 4.20899C22.6635 5.3472 23.6044 6.71256 24.2469 8.2232C24.8893 9.73384 25.22 11.3586 25.2192 13.0002C25.2182 14.0165 25.0915 15.0288 24.8421 16.0141Z" fill="#8DC83A"/>
<path d="M19.173 15.2421C18.6213 15.005 17.9957 14.7361 17.8064 13.7599C17.5689 12.5344 16.7676 11.9268 15.6097 12.0934C15.1565 12.1626 14.7242 12.3312 14.3437 12.5869C13.9632 12.8426 13.6438 13.1792 13.4086 13.5727C12.6994 14.7292 12.541 15.592 12.9352 16.1402C13.2829 16.6222 13.9678 16.749 14.9717 16.5152C15.6366 16.3595 16.0106 16.7101 16.5462 17.3048C17.5146 18.3791 18.2464 18.4956 19.2851 17.3918C19.8906 16.7485 20.0961 16.352 20.0192 15.9774C19.9333 15.5688 19.5469 15.4023 19.173 15.2421ZM18.7183 16.8584C17.9619 17.6609 17.7546 17.4825 17.1246 16.7839C16.4573 16.0435 15.8306 15.5161 14.7953 15.7572C14.1642 15.9036 13.7053 15.8767 13.5669 15.6849C13.4257 15.489 13.484 14.9381 14.0721 13.9797C14.2494 13.6853 14.4886 13.4331 14.7732 13.2404C15.0578 13.0478 15.3809 12.9193 15.7201 12.864C16.4731 12.756 16.881 13.078 17.0421 13.9081C17.309 15.2884 18.2836 15.7072 18.8662 15.9572C18.9999 16.0085 19.1285 16.0721 19.2504 16.1471C19.231 16.2118 19.142 16.4078 18.7183 16.8584Z" fill="#8DC83A"/>
</svg>
