<svg width="15" height="26" viewBox="0 0 15 26" fill="none" xmlns="http://www.w3.org/2000/svg">
<path d="M14.764 6.75103C14.604 4.99409 13.8236 3.35152 12.5626 2.11767C11.3017 0.883806 9.64254 0.139292 7.88254 0.0175306C6.87134 -0.0524879 5.85659 0.0877302 4.90228 0.429347C3.94796 0.770963 3.07475 1.30657 2.33771 2.00241C1.62896 2.66688 1.05805 3.46447 0.657599 4.34961C0.257145 5.23476 0.0349855 6.19012 0.0038096 7.16114C-0.0273663 8.13216 0.133053 9.0998 0.475903 10.0088C0.818754 10.9178 1.33732 11.7504 2.00198 12.459C3.20036 13.7062 3.90031 15.3493 3.96953 17.0776H3.77135C3.48913 17.0783 3.21869 17.1908 3.01936 17.3906C2.82003 17.5904 2.70808 17.8611 2.70808 18.1433V18.8022C2.51666 18.8991 2.35606 19.0475 2.24433 19.2307C2.13261 19.4139 2.07418 19.6246 2.07562 19.8392C2.07708 20.055 2.138 20.2662 2.25168 20.4496C2.36536 20.633 2.5274 20.7816 2.72 20.8789C2.77895 22.08 3.29758 23.2124 4.1685 24.0416C5.03942 24.8708 6.1959 25.3333 7.39845 25.3333C8.60099 25.3333 9.75747 24.8708 10.6284 24.0416C11.4993 23.2124 12.0179 22.08 12.0769 20.8789C12.2681 20.7811 12.4287 20.6325 12.5411 20.4495C12.6535 20.2664 12.7133 20.056 12.7139 19.8412C12.7146 19.6264 12.6561 19.4156 12.5449 19.2319C12.4337 19.0481 12.274 18.8985 12.0834 18.7996V18.1433C12.0833 17.861 11.9713 17.5904 11.772 17.3906C11.5726 17.1908 11.3021 17.0783 11.0199 17.0776H10.8232C10.866 15.3875 11.5363 13.7738 12.7035 12.5508C13.4422 11.788 14.0084 10.8754 14.3639 9.87479C14.7194 8.87419 14.8558 7.80892 14.764 6.75103ZM7.3952 24.5631C6.41851 24.563 5.47689 24.1991 4.75396 23.5424C4.03104 22.8856 3.57864 21.9832 3.48501 21.011H11.3063C11.2114 21.9828 10.7585 22.8847 10.0357 23.5412C9.31281 24.1977 8.37167 24.562 7.3952 24.5631ZM11.9567 19.8392C11.9566 19.9321 11.9254 20.0222 11.8681 20.0952C11.8108 20.1682 11.7306 20.2199 11.6405 20.2421C11.5447 20.2581 3.23181 20.2549 3.15838 20.2421C3.06655 20.2211 2.98449 20.1698 2.92551 20.0963C2.86654 20.0229 2.83411 19.9317 2.83349 19.8375C2.83292 19.7829 2.84321 19.7287 2.86377 19.6782C2.88433 19.6276 2.91474 19.5816 2.95324 19.5429C2.99175 19.5042 3.03756 19.4736 3.08803 19.4527C3.13849 19.4319 3.1926 19.4213 3.24719 19.4216H11.5428C11.5974 19.4218 11.6514 19.4327 11.7018 19.4538C11.7522 19.4749 11.7979 19.5057 11.8364 19.5445C11.8748 19.5833 11.9052 19.6293 11.9259 19.6799C11.9465 19.7305 11.957 19.7846 11.9567 19.8392ZM11.0193 17.8357C11.1004 17.8362 11.1781 17.8689 11.2353 17.9265C11.2924 17.9842 11.3244 18.0621 11.3242 18.1433V18.6653H3.46616V18.1433C3.46593 18.062 3.49794 17.984 3.55515 17.9264C3.61237 17.8687 3.69012 17.8361 3.77135 17.8357C3.79171 17.8357 10.5841 17.8359 11.0193 17.8357ZM10.0626 17.0776H8.66488C8.67787 15.6349 8.92912 10.371 11.869 9.65232C11.9666 9.62843 12.0508 9.56671 12.1029 9.48076C12.1551 9.39481 12.171 9.29166 12.1471 9.19401C12.1232 9.09635 12.0615 9.01219 11.9755 8.96003C11.8896 8.90788 11.7864 8.892 11.6888 8.9159C8.17862 9.77405 7.91134 15.5015 7.90463 17.0776H6.88555C6.87905 15.5015 6.61177 9.77405 3.10164 8.9159C3.00398 8.892 2.90083 8.90788 2.81488 8.96003C2.72893 9.01219 2.66722 9.09635 2.64332 9.19401C2.61942 9.29166 2.6353 9.39481 2.68745 9.48076C2.73961 9.56671 2.82377 9.62843 2.92143 9.65232C5.86127 10.371 6.1123 15.6349 6.12552 17.0776H4.73108C4.66094 15.1558 3.88585 13.3271 2.55365 11.9402C1.66415 10.9923 1.07251 9.80405 0.852117 8.52294C0.63172 7.24184 0.792265 5.92422 1.31384 4.73351C1.83541 3.54281 2.69506 2.53143 3.78615 1.8248C4.87725 1.11818 6.15178 0.747412 7.45166 0.758492C8.75154 0.769573 10.0196 1.16201 11.0985 1.88713C12.1773 2.61225 13.0196 3.63815 13.5208 4.83757C14.022 6.03699 14.1601 7.35716 13.9179 8.63432C13.6757 9.91148 13.0639 11.0894 12.1583 12.0221C10.8532 13.3866 10.1056 15.1899 10.0626 17.0776Z" fill="#8DC83A"/>
</svg>
