<svg width="35" height="26" viewBox="0 0 35 26" fill="none" xmlns="http://www.w3.org/2000/svg">
<path d="M8.27462 22.0269C8.34752 22.0269 8.41959 22.0114 8.48602 21.9813C8.55244 21.9513 8.61171 21.9074 8.65985 21.8527L16.4202 13.0034C16.4849 12.9294 16.5269 12.8383 16.5412 12.741C16.5555 12.6438 16.5415 12.5444 16.5009 12.4549C16.4603 12.3654 16.3947 12.2894 16.3121 12.2362C16.2295 12.1829 16.1332 12.1545 16.0349 12.1545H12.4721C11.8951 4.81543 20.5046 1.36295 20.5945 1.32841C20.6991 1.28771 20.7874 1.2138 20.8459 1.11804C20.9044 1.02228 20.9298 0.90996 20.9183 0.798344C20.9067 0.686729 20.8589 0.581988 20.782 0.500215C20.7052 0.418442 20.6036 0.364161 20.4929 0.34571C15.2112 -0.539218 11.0717 0.276625 8.18826 2.77158C4.60318 5.87453 4.09002 10.5817 4.01918 12.1533H0.511084C0.412848 12.1536 0.316749 12.182 0.234241 12.2353C0.151733 12.2887 0.0862944 12.3646 0.0457252 12.454C0.00515602 12.5435 -0.00883328 12.6428 0.00542471 12.74C0.0196827 12.8372 0.0615867 12.9282 0.126142 13.0022L7.88938 21.8515C7.93734 21.9066 7.99654 21.9507 8.06299 21.9809C8.12945 22.0112 8.2016 22.0269 8.27462 22.0269ZM4.52151 13.1779C4.58968 13.1778 4.65715 13.1642 4.71999 13.1377C4.78282 13.1113 4.83975 13.0726 4.88745 13.0239C4.93514 12.9752 4.97265 12.9174 4.99778 12.8541C5.02291 12.7907 5.03515 12.7229 5.03379 12.6548C5.03379 12.598 4.96412 6.91021 8.86476 3.54087C11.2046 1.52103 14.4969 0.711917 18.668 1.13257C15.95 2.63399 10.6958 6.39735 11.5017 12.7303C11.5174 12.8539 11.5776 12.9676 11.6711 13.05C11.7646 13.1324 11.8849 13.1779 12.0096 13.1779H14.9041L8.27462 20.7377L1.64249 13.1779H4.52151Z" fill="#8DC83A"/>
<path d="M34.1729 12.8764C34.2135 12.7867 34.2275 12.6872 34.2131 12.5898C34.1986 12.4924 34.1564 12.4012 34.0915 12.3272L26.3282 3.47794C26.2788 3.42546 26.2191 3.38365 26.1529 3.35507C26.0866 3.32649 26.0153 3.31175 25.9432 3.31175C25.871 3.31175 25.7997 3.32649 25.7334 3.35507C25.6672 3.38365 25.6075 3.42546 25.5581 3.47794L17.7978 12.3272C17.7332 12.4013 17.6913 12.4923 17.677 12.5896C17.6628 12.6868 17.6768 12.7861 17.7174 12.8755C17.758 12.965 17.8235 13.0409 17.906 13.0942C17.9886 13.1475 18.0847 13.176 18.183 13.1761H21.7461C22.3225 20.5152 13.7133 23.9677 13.6234 24.0022C13.5188 24.0429 13.4305 24.1168 13.372 24.2125C13.3135 24.3083 13.288 24.4206 13.2996 24.5322C13.3111 24.6438 13.3589 24.7485 13.4357 24.8303C13.5125 24.9121 13.614 24.9664 13.7247 24.9849C18.0993 25.7167 22.6899 25.4492 26.0297 22.5591C29.6147 19.4561 30.1279 14.749 30.1984 13.1773H33.7068C33.8052 13.1773 33.9015 13.1488 33.9842 13.0955C34.0668 13.0421 34.1323 12.966 34.1729 12.8764ZM29.6964 12.1527C29.6282 12.1527 29.5607 12.1663 29.4978 12.1928C29.4349 12.2192 29.3779 12.2579 29.3302 12.3067C29.2825 12.3555 29.245 12.4132 29.2199 12.4767C29.1948 12.5401 29.1827 12.6079 29.1841 12.6761C29.1841 12.7329 29.264 18.4055 25.3599 21.7839C23.018 23.8093 19.7245 24.6193 15.5499 24.1981C18.2682 22.6966 23.5224 18.9333 22.7168 12.6003C22.7011 12.4767 22.6408 12.363 22.5472 12.2806C22.4537 12.1982 22.3333 12.1527 22.2086 12.1527H19.3135L25.9433 4.59295L32.5754 12.1527H29.6964Z" fill="#8DC83A"/>
</svg>
