<svg width="26" height="26" viewBox="0 0 26 26" fill="none" xmlns="http://www.w3.org/2000/svg">
<path d="M12.6621 7.55013e-08C10.8246 0.00096682 9.00936 0.401558 7.3422 1.17399C5.67503 1.94642 4.19588 3.07221 3.00732 4.47326C1.81876 5.87432 0.949244 7.51711 0.459081 9.2877C-0.0310827 11.0583 -0.130162 12.9143 0.168714 14.727C0.467591 16.5397 1.15727 18.2657 2.18992 19.7853C3.22256 21.3049 4.57346 22.5817 6.14892 23.5272C7.72437 24.4726 9.48667 25.0641 11.3136 25.2607C13.1405 25.4572 14.9883 25.254 16.7289 24.6652H16.7302C19.5744 23.7014 21.9837 21.7589 23.5285 19.184C25.0733 16.6091 25.6531 13.5692 25.1645 10.6066C24.6758 7.644 23.1506 4.95124 20.8607 3.00858C18.5708 1.06592 15.6652 -0.000327597 12.6621 7.55013e-08ZM12.6621 0.758483C13.3139 0.760476 13.9646 0.814536 14.6078 0.920148C14.8222 1.78699 14.9329 2.8922 14.4318 3.65394C14.0889 4.17404 13.4766 4.49672 12.6112 4.61288C9.8444 4.98388 9.03074 6.51775 8.79275 7.39911C8.44293 8.6946 8.87945 10.2163 9.80864 10.9375C10.3613 11.3675 10.0284 12.4721 9.70633 13.54C9.58452 13.9435 9.45881 14.3607 9.37796 14.7514C9.34856 14.9119 9.27816 15.0621 9.17359 15.1873C9.06902 15.3126 8.93384 15.4087 8.78116 15.4663C8.62848 15.5239 8.4635 15.5411 8.30223 15.5162C8.14096 15.4912 7.98888 15.425 7.86075 15.324C7.21051 14.806 6.69921 13.9918 6.34202 12.9037C5.83635 11.3629 5.11502 10.4116 4.19819 10.0737C3.91275 9.97009 3.60866 9.92781 3.30576 9.94965C3.00287 9.9715 2.70799 10.057 2.44039 10.2005C1.9534 10.4153 1.4437 10.5743 0.921003 10.6747C1.39495 7.9032 2.83301 5.38827 4.98129 3.57389C7.12958 1.75951 9.84994 0.762356 12.6621 0.758483ZM12.6621 24.5749C11.0346 24.5725 9.42489 24.2373 7.93185 23.5898C6.43881 22.9423 5.09407 21.9962 3.98036 20.8097C5.05823 19.929 6.28826 19.8469 7.64162 20.569C10.0178 21.8335 11.3508 20.782 12.4237 19.9373C13.3024 19.2438 13.8397 18.8743 14.6689 19.3235C16.0548 20.0749 15.9956 20.7707 15.9061 21.8237C15.8495 22.4897 15.7865 23.2323 16.0936 24.0712C14.9803 24.4049 13.8243 24.5745 12.6621 24.5749ZM16.8117 23.825C16.5561 23.1335 16.6092 22.5016 16.6615 21.8881C16.7551 20.785 16.8522 19.6445 15.0298 18.6569C13.7215 17.9479 12.7822 18.6882 11.9533 19.3415C10.9158 20.1592 9.93565 20.9315 7.9986 19.8996C5.98114 18.8234 4.46565 19.4258 3.47881 20.2428C1.71521 18.112 0.750783 15.4325 0.751942 12.6667C0.75353 12.2623 0.77603 11.8582 0.81935 11.4561C1.49361 11.3535 2.15099 11.1606 2.77374 10.8825C2.78675 10.8762 2.79953 10.8695 2.81167 10.8621C2.98391 10.7728 3.1727 10.7199 3.36627 10.7068C3.55984 10.6936 3.75405 10.7205 3.93679 10.7856C4.61521 11.0353 5.19782 11.8492 5.62177 13.1402C6.02578 14.3713 6.62032 15.3058 7.38846 15.9173C7.61805 16.0988 7.8905 16.2182 8.17959 16.264C8.46869 16.3098 8.76471 16.2805 9.03918 16.1788C9.31365 16.0771 9.55733 15.9066 9.74679 15.6835C9.93625 15.4604 10.0651 15.1923 10.121 14.9051C10.1949 14.5475 10.3104 14.1643 10.4326 13.7591C10.81 12.5074 11.2379 11.0886 10.2744 10.3388C9.68228 9.8787 9.22733 8.69958 9.52514 7.59675C9.85025 6.38903 10.9832 5.59631 12.7113 5.36464C13.8035 5.21815 14.595 4.78278 15.0638 4.0711C15.553 3.32844 15.6707 2.32486 15.4197 1.08398C17.1628 1.49918 18.7894 2.30281 20.1782 3.43484C20.2482 5.07382 19.6896 5.96601 18.5153 6.08282C16.7978 6.25619 16.0771 7.29076 16.1248 8.24081C16.184 9.42469 17.3819 10.6231 19.5589 10.6231C20.1337 10.6231 20.5252 10.7336 20.7226 10.9516C21.0222 11.2821 20.9565 11.947 20.8867 12.6506C20.7783 13.742 20.6444 15.0994 21.9078 15.849C22.519 16.2114 23.2898 16.3219 23.9842 16.3535C23.43 18.0593 22.4968 19.6175 21.2547 20.9115C20.0125 22.2054 18.4936 23.2015 16.8117 23.825ZM24.2048 15.6033C23.5873 15.5868 22.8229 15.5097 22.2947 15.1965C21.5059 14.7291 21.5239 13.9145 21.6418 12.726C21.7246 11.8887 21.8102 11.0229 21.2851 10.4432C20.9326 10.0545 20.368 9.86548 19.5589 9.86548C17.8746 9.86548 16.9229 9.00926 16.8825 8.20375C16.8464 7.48211 17.517 6.94684 18.5907 6.83848C20.0032 6.69784 20.815 5.73565 20.9294 4.10101C22.0821 5.21003 22.9989 6.54036 23.6249 8.01225C24.2508 9.48413 24.5731 11.0672 24.5722 12.6667C24.5712 13.6569 24.4478 14.6433 24.2048 15.6033Z" fill="#8DC83A"/>
<path d="M18.6811 14.8511C18.1436 14.6201 17.5341 14.3581 17.3496 13.4069C17.1182 12.2129 16.3374 11.6208 15.2093 11.7831C14.7677 11.8506 14.3465 12.0148 13.9757 12.264C13.605 12.5131 13.2938 12.8411 13.0646 13.2245C12.3736 14.3514 12.2193 15.192 12.6033 15.7262C12.9421 16.1958 13.6095 16.3193 14.5877 16.0915C15.2355 15.9398 15.5999 16.2814 16.1218 16.8609C17.0653 17.9076 17.7784 18.0211 18.7903 16.9456C19.3803 16.3189 19.5806 15.9325 19.5056 15.5675C19.4219 15.1694 19.0454 15.0071 18.6811 14.8511ZM18.2381 16.4259C17.5011 17.2078 17.2991 17.034 16.6853 16.3533C16.0351 15.6319 15.4245 15.1181 14.4158 15.353C13.8009 15.4956 13.3537 15.4694 13.2189 15.2826C13.0813 15.0916 13.1381 14.5549 13.7111 13.6211C13.8839 13.3342 14.117 13.0885 14.3942 12.9007C14.6715 12.713 14.9863 12.5879 15.3168 12.534C16.0505 12.4287 16.448 12.7425 16.6049 13.5513C16.865 14.8962 17.8146 15.3042 18.3822 15.5478C18.5124 15.5978 18.6378 15.6598 18.7565 15.7329C18.7377 15.796 18.651 15.9869 18.2381 16.4259Z" fill="#8DC83A"/>
</svg>
